<svg id="Layer_1" data-name="Layer 1" xmlns="http://www.w3.org/2000/svg" viewBox="0 0 64 64.99"><defs><style>.cls-1{fill:blue;}</style></defs><title>quote</title><path class="cls-1" d="M49.86,30.77c-1.58-.15-5.07-.15-5.07-2.37,0-3,4.44-7,11.56-11.25,2.22-1.42,6.82-3.64,6.82-6.65,0-2.38-1.75-4.12-5.39-3.64-3.48.47-8.87,2.85-16,8.87C34.34,21.9,27.37,32.2,27.37,42.34s7,20.59,18.21,20.59c9,0,16.8-6.81,16.8-16.16C62.37,39.64,57.46,31.41,49.86,30.77Z"/><path class="cls-1" d="M27.59,26.32a11,11,0,0,0-4.26-1.25c-1.59-.16-5.07-.16-5.07-2.38,0-3,4.43-7,11.56-11.25C32,10,36.63,7.8,36.63,4.79c0-2.37-1.74-4.12-5.38-3.64-3.49.47-8.88,2.85-16,8.87C7.8,16.2.83,26.49.83,36.63c0,10.3,7,20.59,18.22,20.59a17.55,17.55,0,0,0,7.44-1.65,27.54,27.54,0,0,1-3.4-13.23A33.57,33.57,0,0,1,27.59,26.32Z"/></svg>